<mxfile host="app.diagrams.net" modified="2023-10-07T06:24:55.059Z" agent="Mozilla/5.0 (Windows NT 10.0; Win64; x64) AppleWebKit/537.36 (KHTML, like Gecko) Chrome/117.0.0.0 Safari/537.36" etag="Ezv8LXcDKOXnQARehTj7" version="22.0.3" type="device">
  <diagram id="C5RBs43oDa-KdzZeNtuy" name="Page-1">
    <mxGraphModel dx="1588" dy="912" grid="1" gridSize="10" guides="1" tooltips="1" connect="1" arrows="1" fold="1" page="1" pageScale="1" pageWidth="827" pageHeight="1169" math="0" shadow="0">
      <root>
        <mxCell id="WIyWlLk6GJQsqaUBKTNV-0" />
        <mxCell id="WIyWlLk6GJQsqaUBKTNV-1" parent="WIyWlLk6GJQsqaUBKTNV-0" />
        <mxCell id="TlioM3CWV24OPgRI3QjB-24" value="Booking Class" style="swimlane;fontStyle=1;align=center;verticalAlign=top;childLayout=stackLayout;horizontal=1;startSize=26;horizontalStack=0;resizeParent=1;resizeParentMax=0;resizeLast=0;collapsible=1;marginBottom=0;whiteSpace=wrap;html=1;" vertex="1" parent="WIyWlLk6GJQsqaUBKTNV-1">
          <mxGeometry x="1440" y="297" width="280" height="244" as="geometry" />
        </mxCell>
        <mxCell id="TlioM3CWV24OPgRI3QjB-25" value="+ booking_id: int" style="text;strokeColor=none;fillColor=none;align=left;verticalAlign=top;spacingLeft=4;spacingRight=4;overflow=hidden;rotatable=0;points=[[0,0.5],[1,0.5]];portConstraint=eastwest;whiteSpace=wrap;html=1;" vertex="1" parent="TlioM3CWV24OPgRI3QjB-24">
          <mxGeometry y="26" width="280" height="28" as="geometry" />
        </mxCell>
        <mxCell id="TlioM3CWV24OPgRI3QjB-27" value="+ booking_type: String" style="text;strokeColor=none;fillColor=none;align=left;verticalAlign=top;spacingLeft=4;spacingRight=4;overflow=hidden;rotatable=0;points=[[0,0.5],[1,0.5]];portConstraint=eastwest;whiteSpace=wrap;html=1;" vertex="1" parent="TlioM3CWV24OPgRI3QjB-24">
          <mxGeometry y="54" width="280" height="26" as="geometry" />
        </mxCell>
        <mxCell id="TlioM3CWV24OPgRI3QjB-28" value="+ booking_title: String" style="text;strokeColor=none;fillColor=none;align=left;verticalAlign=top;spacingLeft=4;spacingRight=4;overflow=hidden;rotatable=0;points=[[0,0.5],[1,0.5]];portConstraint=eastwest;whiteSpace=wrap;html=1;" vertex="1" parent="TlioM3CWV24OPgRI3QjB-24">
          <mxGeometry y="80" width="280" height="26" as="geometry" />
        </mxCell>
        <mxCell id="TlioM3CWV24OPgRI3QjB-29" value="+ booking_description: String" style="text;strokeColor=none;fillColor=none;align=left;verticalAlign=top;spacingLeft=4;spacingRight=4;overflow=hidden;rotatable=0;points=[[0,0.5],[1,0.5]];portConstraint=eastwest;whiteSpace=wrap;html=1;" vertex="1" parent="TlioM3CWV24OPgRI3QjB-24">
          <mxGeometry y="106" width="280" height="26" as="geometry" />
        </mxCell>
        <mxCell id="TlioM3CWV24OPgRI3QjB-34" value="+ booking_date: date" style="text;strokeColor=none;fillColor=none;align=left;verticalAlign=top;spacingLeft=4;spacingRight=4;overflow=hidden;rotatable=0;points=[[0,0.5],[1,0.5]];portConstraint=eastwest;whiteSpace=wrap;html=1;" vertex="1" parent="TlioM3CWV24OPgRI3QjB-24">
          <mxGeometry y="132" width="280" height="26" as="geometry" />
        </mxCell>
        <mxCell id="TlioM3CWV24OPgRI3QjB-30" value="" style="line;strokeWidth=1;fillColor=none;align=left;verticalAlign=middle;spacingTop=-1;spacingLeft=3;spacingRight=3;rotatable=0;labelPosition=right;points=[];portConstraint=eastwest;strokeColor=inherit;" vertex="1" parent="TlioM3CWV24OPgRI3QjB-24">
          <mxGeometry y="158" width="280" height="8" as="geometry" />
        </mxCell>
        <mxCell id="TlioM3CWV24OPgRI3QjB-31" value="+ addBooking()" style="text;strokeColor=none;fillColor=none;align=left;verticalAlign=top;spacingLeft=4;spacingRight=4;overflow=hidden;rotatable=0;points=[[0,0.5],[1,0.5]];portConstraint=eastwest;whiteSpace=wrap;html=1;" vertex="1" parent="TlioM3CWV24OPgRI3QjB-24">
          <mxGeometry y="166" width="280" height="26" as="geometry" />
        </mxCell>
        <mxCell id="TlioM3CWV24OPgRI3QjB-32" value="+ editBooking()" style="text;strokeColor=none;fillColor=none;align=left;verticalAlign=top;spacingLeft=4;spacingRight=4;overflow=hidden;rotatable=0;points=[[0,0.5],[1,0.5]];portConstraint=eastwest;whiteSpace=wrap;html=1;" vertex="1" parent="TlioM3CWV24OPgRI3QjB-24">
          <mxGeometry y="192" width="280" height="26" as="geometry" />
        </mxCell>
        <mxCell id="TlioM3CWV24OPgRI3QjB-33" value="+ searchBooking()" style="text;strokeColor=none;fillColor=none;align=left;verticalAlign=top;spacingLeft=4;spacingRight=4;overflow=hidden;rotatable=0;points=[[0,0.5],[1,0.5]];portConstraint=eastwest;whiteSpace=wrap;html=1;" vertex="1" parent="TlioM3CWV24OPgRI3QjB-24">
          <mxGeometry y="218" width="280" height="26" as="geometry" />
        </mxCell>
        <mxCell id="TlioM3CWV24OPgRI3QjB-36" value="Admin Class" style="swimlane;fontStyle=1;align=center;verticalAlign=top;childLayout=stackLayout;horizontal=1;startSize=26;horizontalStack=0;resizeParent=1;resizeParentMax=0;resizeLast=0;collapsible=1;marginBottom=0;whiteSpace=wrap;html=1;" vertex="1" parent="WIyWlLk6GJQsqaUBKTNV-1">
          <mxGeometry x="310" y="630" width="280" height="296" as="geometry" />
        </mxCell>
        <mxCell id="TlioM3CWV24OPgRI3QjB-37" value="+ admin_id: int" style="text;strokeColor=none;fillColor=none;align=left;verticalAlign=top;spacingLeft=4;spacingRight=4;overflow=hidden;rotatable=0;points=[[0,0.5],[1,0.5]];portConstraint=eastwest;whiteSpace=wrap;html=1;" vertex="1" parent="TlioM3CWV24OPgRI3QjB-36">
          <mxGeometry y="26" width="280" height="28" as="geometry" />
        </mxCell>
        <mxCell id="TlioM3CWV24OPgRI3QjB-38" value="+ admin_role_id: int" style="text;strokeColor=none;fillColor=none;align=left;verticalAlign=top;spacingLeft=4;spacingRight=4;overflow=hidden;rotatable=0;points=[[0,0.5],[1,0.5]];portConstraint=eastwest;whiteSpace=wrap;html=1;" vertex="1" parent="TlioM3CWV24OPgRI3QjB-36">
          <mxGeometry y="54" width="280" height="26" as="geometry" />
        </mxCell>
        <mxCell id="TlioM3CWV24OPgRI3QjB-39" value="+ admin_name: String" style="text;strokeColor=none;fillColor=none;align=left;verticalAlign=top;spacingLeft=4;spacingRight=4;overflow=hidden;rotatable=0;points=[[0,0.5],[1,0.5]];portConstraint=eastwest;whiteSpace=wrap;html=1;" vertex="1" parent="TlioM3CWV24OPgRI3QjB-36">
          <mxGeometry y="80" width="280" height="26" as="geometry" />
        </mxCell>
        <mxCell id="TlioM3CWV24OPgRI3QjB-40" value="+ admin_email: String" style="text;strokeColor=none;fillColor=none;align=left;verticalAlign=top;spacingLeft=4;spacingRight=4;overflow=hidden;rotatable=0;points=[[0,0.5],[1,0.5]];portConstraint=eastwest;whiteSpace=wrap;html=1;" vertex="1" parent="TlioM3CWV24OPgRI3QjB-36">
          <mxGeometry y="106" width="280" height="26" as="geometry" />
        </mxCell>
        <mxCell id="TlioM3CWV24OPgRI3QjB-41" value="+ admin_address: String" style="text;strokeColor=none;fillColor=none;align=left;verticalAlign=top;spacingLeft=4;spacingRight=4;overflow=hidden;rotatable=0;points=[[0,0.5],[1,0.5]];portConstraint=eastwest;whiteSpace=wrap;html=1;" vertex="1" parent="TlioM3CWV24OPgRI3QjB-36">
          <mxGeometry y="132" width="280" height="26" as="geometry" />
        </mxCell>
        <mxCell id="TlioM3CWV24OPgRI3QjB-47" value="+ admin_username: String" style="text;strokeColor=none;fillColor=none;align=left;verticalAlign=top;spacingLeft=4;spacingRight=4;overflow=hidden;rotatable=0;points=[[0,0.5],[1,0.5]];portConstraint=eastwest;whiteSpace=wrap;html=1;" vertex="1" parent="TlioM3CWV24OPgRI3QjB-36">
          <mxGeometry y="158" width="280" height="26" as="geometry" />
        </mxCell>
        <mxCell id="TlioM3CWV24OPgRI3QjB-46" value="+ admin_pass: String" style="text;strokeColor=none;fillColor=none;align=left;verticalAlign=top;spacingLeft=4;spacingRight=4;overflow=hidden;rotatable=0;points=[[0,0.5],[1,0.5]];portConstraint=eastwest;whiteSpace=wrap;html=1;" vertex="1" parent="TlioM3CWV24OPgRI3QjB-36">
          <mxGeometry y="184" width="280" height="26" as="geometry" />
        </mxCell>
        <mxCell id="TlioM3CWV24OPgRI3QjB-42" value="" style="line;strokeWidth=1;fillColor=none;align=left;verticalAlign=middle;spacingTop=-1;spacingLeft=3;spacingRight=3;rotatable=0;labelPosition=right;points=[];portConstraint=eastwest;strokeColor=inherit;" vertex="1" parent="TlioM3CWV24OPgRI3QjB-36">
          <mxGeometry y="210" width="280" height="8" as="geometry" />
        </mxCell>
        <mxCell id="TlioM3CWV24OPgRI3QjB-43" value="+ addAdmin()" style="text;strokeColor=none;fillColor=none;align=left;verticalAlign=top;spacingLeft=4;spacingRight=4;overflow=hidden;rotatable=0;points=[[0,0.5],[1,0.5]];portConstraint=eastwest;whiteSpace=wrap;html=1;" vertex="1" parent="TlioM3CWV24OPgRI3QjB-36">
          <mxGeometry y="218" width="280" height="26" as="geometry" />
        </mxCell>
        <mxCell id="TlioM3CWV24OPgRI3QjB-44" value="+ editAdmin()" style="text;strokeColor=none;fillColor=none;align=left;verticalAlign=top;spacingLeft=4;spacingRight=4;overflow=hidden;rotatable=0;points=[[0,0.5],[1,0.5]];portConstraint=eastwest;whiteSpace=wrap;html=1;" vertex="1" parent="TlioM3CWV24OPgRI3QjB-36">
          <mxGeometry y="244" width="280" height="26" as="geometry" />
        </mxCell>
        <mxCell id="TlioM3CWV24OPgRI3QjB-45" value="+ searchAdmin()" style="text;strokeColor=none;fillColor=none;align=left;verticalAlign=top;spacingLeft=4;spacingRight=4;overflow=hidden;rotatable=0;points=[[0,0.5],[1,0.5]];portConstraint=eastwest;whiteSpace=wrap;html=1;" vertex="1" parent="TlioM3CWV24OPgRI3QjB-36">
          <mxGeometry y="270" width="280" height="26" as="geometry" />
        </mxCell>
        <mxCell id="TlioM3CWV24OPgRI3QjB-48" value="Rooms Class" style="swimlane;fontStyle=1;align=center;verticalAlign=top;childLayout=stackLayout;horizontal=1;startSize=26;horizontalStack=0;resizeParent=1;resizeParentMax=0;resizeLast=0;collapsible=1;marginBottom=0;whiteSpace=wrap;html=1;" vertex="1" parent="WIyWlLk6GJQsqaUBKTNV-1">
          <mxGeometry x="610" y="1030" width="280" height="218" as="geometry" />
        </mxCell>
        <mxCell id="TlioM3CWV24OPgRI3QjB-49" value="+ room_id: int" style="text;strokeColor=none;fillColor=none;align=left;verticalAlign=top;spacingLeft=4;spacingRight=4;overflow=hidden;rotatable=0;points=[[0,0.5],[1,0.5]];portConstraint=eastwest;whiteSpace=wrap;html=1;" vertex="1" parent="TlioM3CWV24OPgRI3QjB-48">
          <mxGeometry y="26" width="280" height="28" as="geometry" />
        </mxCell>
        <mxCell id="TlioM3CWV24OPgRI3QjB-50" value="+ room_number: String" style="text;strokeColor=none;fillColor=none;align=left;verticalAlign=top;spacingLeft=4;spacingRight=4;overflow=hidden;rotatable=0;points=[[0,0.5],[1,0.5]];portConstraint=eastwest;whiteSpace=wrap;html=1;" vertex="1" parent="TlioM3CWV24OPgRI3QjB-48">
          <mxGeometry y="54" width="280" height="26" as="geometry" />
        </mxCell>
        <mxCell id="TlioM3CWV24OPgRI3QjB-51" value="+ room_type: String" style="text;strokeColor=none;fillColor=none;align=left;verticalAlign=top;spacingLeft=4;spacingRight=4;overflow=hidden;rotatable=0;points=[[0,0.5],[1,0.5]];portConstraint=eastwest;whiteSpace=wrap;html=1;" vertex="1" parent="TlioM3CWV24OPgRI3QjB-48">
          <mxGeometry y="80" width="280" height="26" as="geometry" />
        </mxCell>
        <mxCell id="TlioM3CWV24OPgRI3QjB-53" value="+ room_description: String" style="text;strokeColor=none;fillColor=none;align=left;verticalAlign=top;spacingLeft=4;spacingRight=4;overflow=hidden;rotatable=0;points=[[0,0.5],[1,0.5]];portConstraint=eastwest;whiteSpace=wrap;html=1;" vertex="1" parent="TlioM3CWV24OPgRI3QjB-48">
          <mxGeometry y="106" width="280" height="26" as="geometry" />
        </mxCell>
        <mxCell id="TlioM3CWV24OPgRI3QjB-54" value="" style="line;strokeWidth=1;fillColor=none;align=left;verticalAlign=middle;spacingTop=-1;spacingLeft=3;spacingRight=3;rotatable=0;labelPosition=right;points=[];portConstraint=eastwest;strokeColor=inherit;" vertex="1" parent="TlioM3CWV24OPgRI3QjB-48">
          <mxGeometry y="132" width="280" height="8" as="geometry" />
        </mxCell>
        <mxCell id="TlioM3CWV24OPgRI3QjB-55" value="+ addRoom()" style="text;strokeColor=none;fillColor=none;align=left;verticalAlign=top;spacingLeft=4;spacingRight=4;overflow=hidden;rotatable=0;points=[[0,0.5],[1,0.5]];portConstraint=eastwest;whiteSpace=wrap;html=1;" vertex="1" parent="TlioM3CWV24OPgRI3QjB-48">
          <mxGeometry y="140" width="280" height="26" as="geometry" />
        </mxCell>
        <mxCell id="TlioM3CWV24OPgRI3QjB-56" value="+ editRoom()" style="text;strokeColor=none;fillColor=none;align=left;verticalAlign=top;spacingLeft=4;spacingRight=4;overflow=hidden;rotatable=0;points=[[0,0.5],[1,0.5]];portConstraint=eastwest;whiteSpace=wrap;html=1;" vertex="1" parent="TlioM3CWV24OPgRI3QjB-48">
          <mxGeometry y="166" width="280" height="26" as="geometry" />
        </mxCell>
        <mxCell id="TlioM3CWV24OPgRI3QjB-57" value="+ searchRoom()" style="text;strokeColor=none;fillColor=none;align=left;verticalAlign=top;spacingLeft=4;spacingRight=4;overflow=hidden;rotatable=0;points=[[0,0.5],[1,0.5]];portConstraint=eastwest;whiteSpace=wrap;html=1;" vertex="1" parent="TlioM3CWV24OPgRI3QjB-48">
          <mxGeometry y="192" width="280" height="26" as="geometry" />
        </mxCell>
        <mxCell id="TlioM3CWV24OPgRI3QjB-58" value="Payment Class" style="swimlane;fontStyle=1;align=center;verticalAlign=top;childLayout=stackLayout;horizontal=1;startSize=26;horizontalStack=0;resizeParent=1;resizeParentMax=0;resizeLast=0;collapsible=1;marginBottom=0;whiteSpace=wrap;html=1;" vertex="1" parent="WIyWlLk6GJQsqaUBKTNV-1">
          <mxGeometry x="1110" y="1060" width="280" height="244" as="geometry" />
        </mxCell>
        <mxCell id="TlioM3CWV24OPgRI3QjB-59" value="+ payment_id: int" style="text;strokeColor=none;fillColor=none;align=left;verticalAlign=top;spacingLeft=4;spacingRight=4;overflow=hidden;rotatable=0;points=[[0,0.5],[1,0.5]];portConstraint=eastwest;whiteSpace=wrap;html=1;" vertex="1" parent="TlioM3CWV24OPgRI3QjB-58">
          <mxGeometry y="26" width="280" height="28" as="geometry" />
        </mxCell>
        <mxCell id="TlioM3CWV24OPgRI3QjB-60" value="+ payment_user_id: int" style="text;strokeColor=none;fillColor=none;align=left;verticalAlign=top;spacingLeft=4;spacingRight=4;overflow=hidden;rotatable=0;points=[[0,0.5],[1,0.5]];portConstraint=eastwest;whiteSpace=wrap;html=1;" vertex="1" parent="TlioM3CWV24OPgRI3QjB-58">
          <mxGeometry y="54" width="280" height="26" as="geometry" />
        </mxCell>
        <mxCell id="TlioM3CWV24OPgRI3QjB-61" value="+ payment_amount: String" style="text;strokeColor=none;fillColor=none;align=left;verticalAlign=top;spacingLeft=4;spacingRight=4;overflow=hidden;rotatable=0;points=[[0,0.5],[1,0.5]];portConstraint=eastwest;whiteSpace=wrap;html=1;" vertex="1" parent="TlioM3CWV24OPgRI3QjB-58">
          <mxGeometry y="80" width="280" height="26" as="geometry" />
        </mxCell>
        <mxCell id="TlioM3CWV24OPgRI3QjB-63" value="+ payment_description: String" style="text;strokeColor=none;fillColor=none;align=left;verticalAlign=top;spacingLeft=4;spacingRight=4;overflow=hidden;rotatable=0;points=[[0,0.5],[1,0.5]];portConstraint=eastwest;whiteSpace=wrap;html=1;" vertex="1" parent="TlioM3CWV24OPgRI3QjB-58">
          <mxGeometry y="106" width="280" height="26" as="geometry" />
        </mxCell>
        <mxCell id="TlioM3CWV24OPgRI3QjB-62" value="+ payment_date: date" style="text;strokeColor=none;fillColor=none;align=left;verticalAlign=top;spacingLeft=4;spacingRight=4;overflow=hidden;rotatable=0;points=[[0,0.5],[1,0.5]];portConstraint=eastwest;whiteSpace=wrap;html=1;" vertex="1" parent="TlioM3CWV24OPgRI3QjB-58">
          <mxGeometry y="132" width="280" height="26" as="geometry" />
        </mxCell>
        <mxCell id="TlioM3CWV24OPgRI3QjB-64" value="" style="line;strokeWidth=1;fillColor=none;align=left;verticalAlign=middle;spacingTop=-1;spacingLeft=3;spacingRight=3;rotatable=0;labelPosition=right;points=[];portConstraint=eastwest;strokeColor=inherit;" vertex="1" parent="TlioM3CWV24OPgRI3QjB-58">
          <mxGeometry y="158" width="280" height="8" as="geometry" />
        </mxCell>
        <mxCell id="TlioM3CWV24OPgRI3QjB-65" value="+ addPayment()" style="text;strokeColor=none;fillColor=none;align=left;verticalAlign=top;spacingLeft=4;spacingRight=4;overflow=hidden;rotatable=0;points=[[0,0.5],[1,0.5]];portConstraint=eastwest;whiteSpace=wrap;html=1;" vertex="1" parent="TlioM3CWV24OPgRI3QjB-58">
          <mxGeometry y="166" width="280" height="26" as="geometry" />
        </mxCell>
        <mxCell id="TlioM3CWV24OPgRI3QjB-66" value="+ editPayment()" style="text;strokeColor=none;fillColor=none;align=left;verticalAlign=top;spacingLeft=4;spacingRight=4;overflow=hidden;rotatable=0;points=[[0,0.5],[1,0.5]];portConstraint=eastwest;whiteSpace=wrap;html=1;" vertex="1" parent="TlioM3CWV24OPgRI3QjB-58">
          <mxGeometry y="192" width="280" height="26" as="geometry" />
        </mxCell>
        <mxCell id="TlioM3CWV24OPgRI3QjB-67" value="+ searchPayment()" style="text;strokeColor=none;fillColor=none;align=left;verticalAlign=top;spacingLeft=4;spacingRight=4;overflow=hidden;rotatable=0;points=[[0,0.5],[1,0.5]];portConstraint=eastwest;whiteSpace=wrap;html=1;" vertex="1" parent="TlioM3CWV24OPgRI3QjB-58">
          <mxGeometry y="218" width="280" height="26" as="geometry" />
        </mxCell>
        <mxCell id="TlioM3CWV24OPgRI3QjB-68" value="&lt;font style=&quot;font-size: 12px;&quot;&gt;Role Class&lt;/font&gt;" style="swimlane;fontStyle=1;align=center;verticalAlign=top;childLayout=stackLayout;horizontal=1;startSize=26;horizontalStack=0;resizeParent=1;resizeParentMax=0;resizeLast=0;collapsible=1;marginBottom=0;whiteSpace=wrap;html=1;" vertex="1" parent="WIyWlLk6GJQsqaUBKTNV-1">
          <mxGeometry x="547" y="310" width="280" height="218" as="geometry" />
        </mxCell>
        <mxCell id="TlioM3CWV24OPgRI3QjB-69" value="+ role_id: int" style="text;strokeColor=none;fillColor=none;align=left;verticalAlign=top;spacingLeft=4;spacingRight=4;overflow=hidden;rotatable=0;points=[[0,0.5],[1,0.5]];portConstraint=eastwest;whiteSpace=wrap;html=1;" vertex="1" parent="TlioM3CWV24OPgRI3QjB-68">
          <mxGeometry y="26" width="280" height="28" as="geometry" />
        </mxCell>
        <mxCell id="TlioM3CWV24OPgRI3QjB-70" value="+ role_title: String" style="text;strokeColor=none;fillColor=none;align=left;verticalAlign=top;spacingLeft=4;spacingRight=4;overflow=hidden;rotatable=0;points=[[0,0.5],[1,0.5]];portConstraint=eastwest;whiteSpace=wrap;html=1;" vertex="1" parent="TlioM3CWV24OPgRI3QjB-68">
          <mxGeometry y="54" width="280" height="26" as="geometry" />
        </mxCell>
        <mxCell id="TlioM3CWV24OPgRI3QjB-72" value="+ role_description: String" style="text;strokeColor=none;fillColor=none;align=left;verticalAlign=top;spacingLeft=4;spacingRight=4;overflow=hidden;rotatable=0;points=[[0,0.5],[1,0.5]];portConstraint=eastwest;whiteSpace=wrap;html=1;" vertex="1" parent="TlioM3CWV24OPgRI3QjB-68">
          <mxGeometry y="80" width="280" height="26" as="geometry" />
        </mxCell>
        <mxCell id="TlioM3CWV24OPgRI3QjB-73" value="" style="line;strokeWidth=1;fillColor=none;align=left;verticalAlign=middle;spacingTop=-1;spacingLeft=3;spacingRight=3;rotatable=0;labelPosition=right;points=[];portConstraint=eastwest;strokeColor=inherit;" vertex="1" parent="TlioM3CWV24OPgRI3QjB-68">
          <mxGeometry y="106" width="280" height="8" as="geometry" />
        </mxCell>
        <mxCell id="TlioM3CWV24OPgRI3QjB-74" value="+ addRole()" style="text;strokeColor=none;fillColor=none;align=left;verticalAlign=top;spacingLeft=4;spacingRight=4;overflow=hidden;rotatable=0;points=[[0,0.5],[1,0.5]];portConstraint=eastwest;whiteSpace=wrap;html=1;" vertex="1" parent="TlioM3CWV24OPgRI3QjB-68">
          <mxGeometry y="114" width="280" height="26" as="geometry" />
        </mxCell>
        <mxCell id="TlioM3CWV24OPgRI3QjB-75" value="+ editRole()" style="text;strokeColor=none;fillColor=none;align=left;verticalAlign=top;spacingLeft=4;spacingRight=4;overflow=hidden;rotatable=0;points=[[0,0.5],[1,0.5]];portConstraint=eastwest;whiteSpace=wrap;html=1;" vertex="1" parent="TlioM3CWV24OPgRI3QjB-68">
          <mxGeometry y="140" width="280" height="26" as="geometry" />
        </mxCell>
        <mxCell id="TlioM3CWV24OPgRI3QjB-76" value="+ searchRole()" style="text;strokeColor=none;fillColor=none;align=left;verticalAlign=top;spacingLeft=4;spacingRight=4;overflow=hidden;rotatable=0;points=[[0,0.5],[1,0.5]];portConstraint=eastwest;whiteSpace=wrap;html=1;" vertex="1" parent="TlioM3CWV24OPgRI3QjB-68">
          <mxGeometry y="166" width="280" height="26" as="geometry" />
        </mxCell>
        <mxCell id="TlioM3CWV24OPgRI3QjB-78" value="+ assignRole()" style="text;strokeColor=none;fillColor=none;align=left;verticalAlign=top;spacingLeft=4;spacingRight=4;overflow=hidden;rotatable=0;points=[[0,0.5],[1,0.5]];portConstraint=eastwest;whiteSpace=wrap;html=1;" vertex="1" parent="TlioM3CWV24OPgRI3QjB-68">
          <mxGeometry y="192" width="280" height="26" as="geometry" />
        </mxCell>
        <mxCell id="TlioM3CWV24OPgRI3QjB-0" value="User Class" style="swimlane;fontStyle=1;align=center;verticalAlign=top;childLayout=stackLayout;horizontal=1;startSize=26;horizontalStack=0;resizeParent=1;resizeParentMax=0;resizeLast=0;collapsible=1;marginBottom=0;whiteSpace=wrap;html=1;" vertex="1" parent="WIyWlLk6GJQsqaUBKTNV-1">
          <mxGeometry x="1490" y="670" width="280" height="296" as="geometry" />
        </mxCell>
        <mxCell id="TlioM3CWV24OPgRI3QjB-1" value="+ user_id: int" style="text;strokeColor=none;fillColor=none;align=left;verticalAlign=top;spacingLeft=4;spacingRight=4;overflow=hidden;rotatable=0;points=[[0,0.5],[1,0.5]];portConstraint=eastwest;whiteSpace=wrap;html=1;" vertex="1" parent="TlioM3CWV24OPgRI3QjB-0">
          <mxGeometry y="26" width="280" height="28" as="geometry" />
        </mxCell>
        <mxCell id="TlioM3CWV24OPgRI3QjB-4" value="+ user_name: String" style="text;strokeColor=none;fillColor=none;align=left;verticalAlign=top;spacingLeft=4;spacingRight=4;overflow=hidden;rotatable=0;points=[[0,0.5],[1,0.5]];portConstraint=eastwest;whiteSpace=wrap;html=1;" vertex="1" parent="TlioM3CWV24OPgRI3QjB-0">
          <mxGeometry y="54" width="280" height="26" as="geometry" />
        </mxCell>
        <mxCell id="TlioM3CWV24OPgRI3QjB-5" value="+ user_mob: String" style="text;strokeColor=none;fillColor=none;align=left;verticalAlign=top;spacingLeft=4;spacingRight=4;overflow=hidden;rotatable=0;points=[[0,0.5],[1,0.5]];portConstraint=eastwest;whiteSpace=wrap;html=1;" vertex="1" parent="TlioM3CWV24OPgRI3QjB-0">
          <mxGeometry y="80" width="280" height="26" as="geometry" />
        </mxCell>
        <mxCell id="TlioM3CWV24OPgRI3QjB-6" value="+ user_email: String" style="text;strokeColor=none;fillColor=none;align=left;verticalAlign=top;spacingLeft=4;spacingRight=4;overflow=hidden;rotatable=0;points=[[0,0.5],[1,0.5]];portConstraint=eastwest;whiteSpace=wrap;html=1;" vertex="1" parent="TlioM3CWV24OPgRI3QjB-0">
          <mxGeometry y="106" width="280" height="26" as="geometry" />
        </mxCell>
        <mxCell id="TlioM3CWV24OPgRI3QjB-7" value="+ user_address: String" style="text;strokeColor=none;fillColor=none;align=left;verticalAlign=top;spacingLeft=4;spacingRight=4;overflow=hidden;rotatable=0;points=[[0,0.5],[1,0.5]];portConstraint=eastwest;whiteSpace=wrap;html=1;" vertex="1" parent="TlioM3CWV24OPgRI3QjB-0">
          <mxGeometry y="132" width="280" height="26" as="geometry" />
        </mxCell>
        <mxCell id="TlioM3CWV24OPgRI3QjB-8" value="+ user_username: String" style="text;strokeColor=none;fillColor=none;align=left;verticalAlign=top;spacingLeft=4;spacingRight=4;overflow=hidden;rotatable=0;points=[[0,0.5],[1,0.5]];portConstraint=eastwest;whiteSpace=wrap;html=1;" vertex="1" parent="TlioM3CWV24OPgRI3QjB-0">
          <mxGeometry y="158" width="280" height="26" as="geometry" />
        </mxCell>
        <mxCell id="TlioM3CWV24OPgRI3QjB-9" value="+ user_pass: String" style="text;strokeColor=none;fillColor=none;align=left;verticalAlign=top;spacingLeft=4;spacingRight=4;overflow=hidden;rotatable=0;points=[[0,0.5],[1,0.5]];portConstraint=eastwest;whiteSpace=wrap;html=1;" vertex="1" parent="TlioM3CWV24OPgRI3QjB-0">
          <mxGeometry y="184" width="280" height="26" as="geometry" />
        </mxCell>
        <mxCell id="TlioM3CWV24OPgRI3QjB-2" value="" style="line;strokeWidth=1;fillColor=none;align=left;verticalAlign=middle;spacingTop=-1;spacingLeft=3;spacingRight=3;rotatable=0;labelPosition=right;points=[];portConstraint=eastwest;strokeColor=inherit;" vertex="1" parent="TlioM3CWV24OPgRI3QjB-0">
          <mxGeometry y="210" width="280" height="8" as="geometry" />
        </mxCell>
        <mxCell id="TlioM3CWV24OPgRI3QjB-3" value="+ addUser()" style="text;strokeColor=none;fillColor=none;align=left;verticalAlign=top;spacingLeft=4;spacingRight=4;overflow=hidden;rotatable=0;points=[[0,0.5],[1,0.5]];portConstraint=eastwest;whiteSpace=wrap;html=1;" vertex="1" parent="TlioM3CWV24OPgRI3QjB-0">
          <mxGeometry y="218" width="280" height="26" as="geometry" />
        </mxCell>
        <mxCell id="TlioM3CWV24OPgRI3QjB-11" value="+ editUser()" style="text;strokeColor=none;fillColor=none;align=left;verticalAlign=top;spacingLeft=4;spacingRight=4;overflow=hidden;rotatable=0;points=[[0,0.5],[1,0.5]];portConstraint=eastwest;whiteSpace=wrap;html=1;" vertex="1" parent="TlioM3CWV24OPgRI3QjB-0">
          <mxGeometry y="244" width="280" height="26" as="geometry" />
        </mxCell>
        <mxCell id="TlioM3CWV24OPgRI3QjB-10" value="+ searchUser()" style="text;strokeColor=none;fillColor=none;align=left;verticalAlign=top;spacingLeft=4;spacingRight=4;overflow=hidden;rotatable=0;points=[[0,0.5],[1,0.5]];portConstraint=eastwest;whiteSpace=wrap;html=1;" vertex="1" parent="TlioM3CWV24OPgRI3QjB-0">
          <mxGeometry y="270" width="280" height="26" as="geometry" />
        </mxCell>
        <mxCell id="TlioM3CWV24OPgRI3QjB-12" value="Permission Class" style="swimlane;fontStyle=1;align=center;verticalAlign=top;childLayout=stackLayout;horizontal=1;startSize=26;horizontalStack=0;resizeParent=1;resizeParentMax=0;resizeLast=0;collapsible=1;marginBottom=0;whiteSpace=wrap;html=1;" vertex="1" parent="WIyWlLk6GJQsqaUBKTNV-1">
          <mxGeometry x="940" y="297" width="280" height="244" as="geometry" />
        </mxCell>
        <mxCell id="TlioM3CWV24OPgRI3QjB-13" value="+ permission_id: int" style="text;strokeColor=none;fillColor=none;align=left;verticalAlign=top;spacingLeft=4;spacingRight=4;overflow=hidden;rotatable=0;points=[[0,0.5],[1,0.5]];portConstraint=eastwest;whiteSpace=wrap;html=1;" vertex="1" parent="TlioM3CWV24OPgRI3QjB-12">
          <mxGeometry y="26" width="280" height="28" as="geometry" />
        </mxCell>
        <mxCell id="TlioM3CWV24OPgRI3QjB-14" value="+ permission_role_id: int" style="text;strokeColor=none;fillColor=none;align=left;verticalAlign=top;spacingLeft=4;spacingRight=4;overflow=hidden;rotatable=0;points=[[0,0.5],[1,0.5]];portConstraint=eastwest;whiteSpace=wrap;html=1;" vertex="1" parent="TlioM3CWV24OPgRI3QjB-12">
          <mxGeometry y="54" width="280" height="26" as="geometry" />
        </mxCell>
        <mxCell id="TlioM3CWV24OPgRI3QjB-15" value="+ permission_title: String" style="text;strokeColor=none;fillColor=none;align=left;verticalAlign=top;spacingLeft=4;spacingRight=4;overflow=hidden;rotatable=0;points=[[0,0.5],[1,0.5]];portConstraint=eastwest;whiteSpace=wrap;html=1;" vertex="1" parent="TlioM3CWV24OPgRI3QjB-12">
          <mxGeometry y="80" width="280" height="26" as="geometry" />
        </mxCell>
        <mxCell id="TlioM3CWV24OPgRI3QjB-16" value="+ permission_module: String" style="text;strokeColor=none;fillColor=none;align=left;verticalAlign=top;spacingLeft=4;spacingRight=4;overflow=hidden;rotatable=0;points=[[0,0.5],[1,0.5]];portConstraint=eastwest;whiteSpace=wrap;html=1;" vertex="1" parent="TlioM3CWV24OPgRI3QjB-12">
          <mxGeometry y="106" width="280" height="26" as="geometry" />
        </mxCell>
        <mxCell id="TlioM3CWV24OPgRI3QjB-17" value="+ permission_description: String" style="text;strokeColor=none;fillColor=none;align=left;verticalAlign=top;spacingLeft=4;spacingRight=4;overflow=hidden;rotatable=0;points=[[0,0.5],[1,0.5]];portConstraint=eastwest;whiteSpace=wrap;html=1;" vertex="1" parent="TlioM3CWV24OPgRI3QjB-12">
          <mxGeometry y="132" width="280" height="26" as="geometry" />
        </mxCell>
        <mxCell id="TlioM3CWV24OPgRI3QjB-20" value="" style="line;strokeWidth=1;fillColor=none;align=left;verticalAlign=middle;spacingTop=-1;spacingLeft=3;spacingRight=3;rotatable=0;labelPosition=right;points=[];portConstraint=eastwest;strokeColor=inherit;" vertex="1" parent="TlioM3CWV24OPgRI3QjB-12">
          <mxGeometry y="158" width="280" height="8" as="geometry" />
        </mxCell>
        <mxCell id="TlioM3CWV24OPgRI3QjB-21" value="+ addPermission()" style="text;strokeColor=none;fillColor=none;align=left;verticalAlign=top;spacingLeft=4;spacingRight=4;overflow=hidden;rotatable=0;points=[[0,0.5],[1,0.5]];portConstraint=eastwest;whiteSpace=wrap;html=1;" vertex="1" parent="TlioM3CWV24OPgRI3QjB-12">
          <mxGeometry y="166" width="280" height="26" as="geometry" />
        </mxCell>
        <mxCell id="TlioM3CWV24OPgRI3QjB-22" value="+ editPermission()" style="text;strokeColor=none;fillColor=none;align=left;verticalAlign=top;spacingLeft=4;spacingRight=4;overflow=hidden;rotatable=0;points=[[0,0.5],[1,0.5]];portConstraint=eastwest;whiteSpace=wrap;html=1;" vertex="1" parent="TlioM3CWV24OPgRI3QjB-12">
          <mxGeometry y="192" width="280" height="26" as="geometry" />
        </mxCell>
        <mxCell id="TlioM3CWV24OPgRI3QjB-23" value="+ searchPermission()" style="text;strokeColor=none;fillColor=none;align=left;verticalAlign=top;spacingLeft=4;spacingRight=4;overflow=hidden;rotatable=0;points=[[0,0.5],[1,0.5]];portConstraint=eastwest;whiteSpace=wrap;html=1;" vertex="1" parent="TlioM3CWV24OPgRI3QjB-12">
          <mxGeometry y="218" width="280" height="26" as="geometry" />
        </mxCell>
        <mxCell id="TlioM3CWV24OPgRI3QjB-82" value="" style="endArrow=diamondThin;endFill=0;endSize=24;html=1;rounded=0;entryX=1;entryY=0.5;entryDx=0;entryDy=0;exitX=0;exitY=0.5;exitDx=0;exitDy=0;" edge="1" parent="WIyWlLk6GJQsqaUBKTNV-1" source="TlioM3CWV24OPgRI3QjB-29" target="TlioM3CWV24OPgRI3QjB-16">
          <mxGeometry width="160" relative="1" as="geometry">
            <mxPoint x="590" y="840" as="sourcePoint" />
            <mxPoint x="750" y="840" as="targetPoint" />
          </mxGeometry>
        </mxCell>
        <mxCell id="TlioM3CWV24OPgRI3QjB-83" value="" style="html=1;verticalAlign=bottom;endArrow=block;curved=0;rounded=0;exitX=0.5;exitY=0;exitDx=0;exitDy=0;" edge="1" parent="WIyWlLk6GJQsqaUBKTNV-1" source="TlioM3CWV24OPgRI3QjB-36">
          <mxGeometry width="80" relative="1" as="geometry">
            <mxPoint x="630" y="840" as="sourcePoint" />
            <mxPoint x="547" y="403" as="targetPoint" />
            <Array as="points">
              <mxPoint x="450" y="403" />
            </Array>
          </mxGeometry>
        </mxCell>
        <mxCell id="TlioM3CWV24OPgRI3QjB-86" value="" style="html=1;verticalAlign=bottom;endArrow=block;curved=0;rounded=0;entryX=0;entryY=0.5;entryDx=0;entryDy=0;exitX=1;exitY=0.5;exitDx=0;exitDy=0;" edge="1" parent="WIyWlLk6GJQsqaUBKTNV-1" source="TlioM3CWV24OPgRI3QjB-39" target="TlioM3CWV24OPgRI3QjB-16">
          <mxGeometry x="-0.004" width="80" relative="1" as="geometry">
            <mxPoint x="630" y="870" as="sourcePoint" />
            <mxPoint x="710" y="870" as="targetPoint" />
            <Array as="points">
              <mxPoint x="860" y="720" />
              <mxPoint x="860" y="416" />
            </Array>
            <mxPoint as="offset" />
          </mxGeometry>
        </mxCell>
        <mxCell id="TlioM3CWV24OPgRI3QjB-87" value="" style="endArrow=diamondThin;endFill=0;endSize=24;html=1;rounded=0;" edge="1" parent="WIyWlLk6GJQsqaUBKTNV-1">
          <mxGeometry width="160" relative="1" as="geometry">
            <mxPoint x="1070" y="790" as="sourcePoint" />
            <mxPoint x="1070" y="540" as="targetPoint" />
          </mxGeometry>
        </mxCell>
        <mxCell id="TlioM3CWV24OPgRI3QjB-88" value="" style="endArrow=none;html=1;edgeStyle=orthogonalEdgeStyle;rounded=0;exitX=0;exitY=0.5;exitDx=0;exitDy=0;" edge="1" parent="WIyWlLk6GJQsqaUBKTNV-1" source="TlioM3CWV24OPgRI3QjB-8">
          <mxGeometry relative="1" as="geometry">
            <mxPoint x="590" y="870" as="sourcePoint" />
            <mxPoint x="1070" y="780" as="targetPoint" />
            <Array as="points">
              <mxPoint x="1490" y="710" />
              <mxPoint x="1070" y="710" />
            </Array>
          </mxGeometry>
        </mxCell>
        <mxCell id="TlioM3CWV24OPgRI3QjB-89" value="parent" style="edgeLabel;resizable=0;html=1;align=left;verticalAlign=bottom;" connectable="0" vertex="1" parent="TlioM3CWV24OPgRI3QjB-88">
          <mxGeometry x="-1" relative="1" as="geometry" />
        </mxCell>
        <mxCell id="TlioM3CWV24OPgRI3QjB-91" value="" style="endArrow=none;html=1;edgeStyle=orthogonalEdgeStyle;rounded=0;exitX=0.5;exitY=0;exitDx=0;exitDy=0;" edge="1" parent="WIyWlLk6GJQsqaUBKTNV-1" source="TlioM3CWV24OPgRI3QjB-58">
          <mxGeometry relative="1" as="geometry">
            <mxPoint x="610" y="870" as="sourcePoint" />
            <mxPoint x="1070" y="760" as="targetPoint" />
          </mxGeometry>
        </mxCell>
        <mxCell id="TlioM3CWV24OPgRI3QjB-94" value="" style="endArrow=none;html=1;edgeStyle=orthogonalEdgeStyle;rounded=0;exitX=0.5;exitY=0;exitDx=0;exitDy=0;" edge="1" parent="WIyWlLk6GJQsqaUBKTNV-1" source="TlioM3CWV24OPgRI3QjB-48">
          <mxGeometry relative="1" as="geometry">
            <mxPoint x="590" y="870" as="sourcePoint" />
            <mxPoint x="1070" y="800" as="targetPoint" />
          </mxGeometry>
        </mxCell>
      </root>
    </mxGraphModel>
  </diagram>
</mxfile>
